<svg xmlns="http://www.w3.org/2000/svg" viewBox="0 0 64 64">
    <defs>
        <style>.cls-1{fill:#fff}.cls-4{fill:#ffcdbe}.cls-6{fill:#ffbeaa}.cls-7{fill:#f2f6fc}.cls-10{fill:#7e8596}.cls-11{fill:#afb4c8}</style>
    </defs>
    <g id="_55-Programmer" data-name="55-Programmer">
        <path class="cls-1" d="M55 9v14H45l-4 3v-3h-6V9h20z" />
        <path style="fill:#67B1EE" d="M35 1h20v8H35z" />
        <path style="fill:#dfe1ea" d="M38 12h14v8H38z" />
        <path class="cls-4" d="M27 28a2 2 0 0 1 0 4h-1v-4z" />
        <path d="M12 29v-6c0-6 5-6 5-6h5c7 0 7 8 7 8H18c0 3-6 4-6 4z" style="fill:#b46e5a" />
        <path class="cls-4" d="M12 29v3h-1a2 2 0 0 1 0-4h1zM16 38.33A6.592 6.592 0 0 1 14 37c-2-2-2-3-2-3v-5s6-1 6-4h8v9s0 1-2 3a6.592 6.592 0 0 1-2 1.33 8.459 8.459 0 0 1-3 .67 8.459 8.459 0 0 1-3-.67z" />
        <path class="cls-6" d="M22 41v1a3 3 0 0 1-6 0v-3.67a8.459 8.459 0 0 0 3 .67 8.459 8.459 0 0 0 3-.67z" />
        <path class="cls-7" d="M19 45a2.938 2.938 0 0 0 3-3l3 3s-2 4-6 4zM19 45v4c-4 0-6-4-6-4l3-3a2.938 2.938 0 0 0 3 3z" />
        <path d="M13 45s2 4 6 4 6-4 6-4l-3-3v-1h5s5 0 5 5v17H6V46c0-5 5-5 5-5h5v1z" style="fill:#bec3d2" />
        <path class="cls-6" d="M26 25h-8c0 3-6 4-6 4v.168A31.293 31.293 0 0 1 15.394 29C21.049 29 22.5 30.106 26 30.673V25z" />
        <path d="M12 28v1s6-1 6-4h-6z" style="fill:#915041" />
        <path class="cls-10" d="M11 41s-5 0-5 5v17h6V41zM27 41h-1v22h6V46c0-5-5-5-5-5z" />
        <path class="cls-11" d="m44 55 1 8H35l1-8h8z" />
        <circle style="fill:#C17BD4" class="cls-11" cx="40" cy="43" r="2" />
        <path d="M58 29v26H22V29zM42 43a2 2 0 1 0-2 2 2.006 2.006 0 0 0 2-2z" style="fill:#dce1eb" />
        <path d="M22 33.694A25.327 25.327 0 0 1 28.394 33c7.6 0 7.6 2 15.2 2 7.318 0 7.611-1.849 14.405-1.987V29H22z" style="fill:#f6fafd" />
        <path class="cls-10" d="m36 55-.373 2.984c.314.008.625.016.968.016a25.913 25.913 0 0 0 7.654-1.008L44 55z" />
        <path class="cls-1" d="M38 4h2v2h-2zM42 4h2v2h-2z" />
        <path d="M58 28H27v-2h2a1 1 0 0 0 1-1c0-3.113-1.672-9-8-9h-5c-2.075 0-6 1.463-6 7v4a3 3 0 0 0 0 6v1c0 .332.165 1.579 2.293 3.707A7.034 7.034 0 0 0 15 38.938V40h-4a5.785 5.785 0 0 0-6 6v17a1 1 0 0 0 1 1h24v-2h-3v-6h7.867l-.75 6H32v2h16v-2h-2.117l-.75-6H58a1 1 0 0 0 1-1V29a1 1 0 0 0-1-1zm-48 2a1 1 0 0 1 1-1v2a1 1 0 0 1-1-1zm3-7c0-4.809 3.6-5 4-5h5c4.59 0 5.669 4.06 5.922 6H18a1 1 0 0 0-1 1c0 1.3-2.243 2.272-4 2.752zm0 10.995v-4.179c1.652-.385 5.07-1.456 5.843-3.816H25v2h-3a1 1 0 0 0-1 1v8.624A7.106 7.106 0 0 1 19 38a6.8 6.8 0 0 1-4.293-1.707A6.466 6.466 0 0 1 13 33.995zM19 40a8.542 8.542 0 0 0 2-.3V42a1.883 1.883 0 0 1-2 2 1.883 1.883 0 0 1-2-2v-2.291A8.515 8.515 0 0 0 19 40zm-3.523 3.937A3.633 3.633 0 0 0 18 45.9v2a6.475 6.475 0 0 1-3.736-2.744zM25 62H13V50h-2v12H7V46a3.85 3.85 0 0 1 4-4h3.586l-2.293 2.293a1 1 0 0 0-.188 1.154c.086.172 2 3.9 5.9 4.473V59h2V45.9a3.7 3.7 0 0 0 1-.383V55a1 1 0 0 0 1 1h3zm11.133 0 .75-6h6.234l.75 6zM57 54H23V30h34z" />
        <path d="M40 46a3 3 0 1 0-3-3 3 3 0 0 0 3 3zm0-4a1 1 0 1 1-1 1 1 1 0 0 1 1-1zM42.293 12.293l-3 3a1 1 0 0 0 0 1.414l3 3 1.414-1.414L41.414 16l2.293-2.293zM47.707 12.293l-1.414 1.414L48.586 16l-2.293 2.293 1.414 1.414 3-3a1 1 0 0 0 0-1.414z" />
        <path style="fill:#C17BD4" d="M35 24h5v2a1 1 0 0 0 1.6.8l3.733-2.8H55a1 1 0 0 0 1-1V1a1 1 0 0 0-1-1H35a1 1 0 0 0-1 1v22a1 1 0 0 0 1 1zm10-2a1 1 0 0 0-.6.2L42 24v-1a1 1 0 0 0-1-1h-5V10h18v12zm9-20v6H36V2zM29.772 13.635a1 1 0 0 0 .208-.829c-.162-.827-.3-2.773.31-3.516A.811.811 0 0 1 31 9a1 1 0 0 0 1-1V6a1 1 0 0 0-1-1 .811.811 0 0 1-.71-.29c-.61-.743-.472-2.689-.31-3.516A1 1 0 0 0 29 0h-2v2h.865a5.866 5.866 0 0 0 .877 3.977A2.717 2.717 0 0 0 30 6.846v.308a2.717 2.717 0 0 0-1.258.869A5.866 5.866 0 0 0 27.865 12H27v2h2a1 1 0 0 0 .772-.365zM19 6h2v2h-2zM15 6h2v2h-2zM23 6h2v2h-2zM9 9a.811.811 0 0 1 .71.29c.61.743.472 2.689.31 3.516A1 1 0 0 0 11 14h2v-2h-.865a5.866 5.866 0 0 0-.877-3.977A2.717 2.717 0 0 0 10 7.154v-.308a2.717 2.717 0 0 0 1.258-.869A5.866 5.866 0 0 0 12.135 2H13V0h-2a1 1 0 0 0-.98 1.194c.162.827.3 2.773-.31 3.516A.811.811 0 0 1 9 5a1 1 0 0 0-1 1v2a1 1 0 0 0 1 1z" />
    </g>
</svg>